<svg viewBox="0 0 33 33" role="img" aria-label="QR code for https://example.com/" xmlns="http://www.w3.org/2000/svg">
<title>fast_qr_moonbit 生成的二维码：https://example.com/</title>
<rect width="33" height="33" fill="#ffffff"/>
<path fill-rule="evenodd" d="M4,4h7v1h-7zM15,4h2v1h-2zM18,4h1v1h-1zM22,4h7v1h-7zM4,5h1v5h-1zM10,5h1v5h-1zM13,5h1v1h-1zM15,5h4v1h-4zM20,5h1v2h-1zM22,5h1v5h-1zM28,5h1v5h-1zM6,6h3v3h-3zM16,6h2v1h-2zM24,6h3v3h-3zM12,7h1v1h-1zM14,7h1v1h-1zM17,7h2v1h-2zM13,8h2v1h-2zM18,8h1v3h-1zM12,9h3v1h-3zM16,9h1v3h-1zM4,10h7v1h-7zM12,10h1v1h-1zM14,10h1v1h-1zM20,10h1v1h-1zM22,10h7v1h-7zM12,11h3v1h-3zM18,11h3v1h-3zM5,12h2v1h-2zM10,12h1v1h-1zM13,12h1v1h-1zM15,12h2v1h-2zM18,12h1v1h-1zM20,12h1v1h-1zM22,12h2v1h-2zM25,12h1v2h-1zM4,13h2v1h-2zM7,13h2v1h-2zM12,13h3v1h-3zM17,13h1v1h-1zM19,13h1v2h-1zM21,13h3v1h-3zM27,13h2v1h-2zM5,14h1v1h-1zM9,14h2v1h-2zM16,14h1v2h-1zM21,14h1v1h-1zM24,14h3v1h-3zM28,14h1v1h-1zM4,15h1v2h-1zM6,15h1v1h-1zM9,15h1v1h-1zM11,15h1v1h-1zM13,15h1v1h-1zM18,15h1v1h-1zM20,15h1v1h-1zM23,15h1v1h-1zM25,15h1v1h-1zM6,16h2v1h-2zM9,16h4v1h-4zM16,16h5v1h-5zM22,16h2v2h-2zM28,16h1v1h-1zM6,17h1v1h-1zM11,17h1v1h-1zM15,17h2v1h-2zM19,17h2v1h-2zM27,17h2v1h-2zM4,18h3v1h-3zM8,18h1v1h-1zM10,18h1v1h-1zM13,18h1v1h-1zM16,18h1v1h-1zM19,18h4v1h-4zM25,18h2v1h-2zM28,18h1v1h-1zM6,19h2v1h-2zM9,19h1v1h-1zM11,19h5v1h-5zM20,19h2v1h-2zM23,19h3v1h-3zM4,20h8v1h-8zM14,20h2v1h-2zM20,20h5v1h-5zM27,20h1v1h-1zM12,21h1v1h-1zM16,21h1v1h-1zM20,21h1v2h-1zM24,21h1v3h-1zM28,21h1v2h-1zM4,22h7v1h-7zM13,22h2v1h-2zM17,22h1v1h-1zM22,22h1v1h-1zM4,23h1v5h-1zM10,23h1v5h-1zM14,23h1v1h-1zM17,23h4v1h-4zM6,24h3v3h-3zM14,24h11v1h-11zM28,24h1v1h-1zM13,25h1v1h-1zM15,25h1v1h-1zM18,25h1v1h-1zM21,25h1v1h-1zM24,25h1v1h-1zM26,25h2v1h-2zM12,26h1v1h-1zM14,26h4v1h-4zM19,26h3v1h-3zM23,26h3v1h-3zM27,26h2v1h-2zM12,27h2v1h-2zM15,27h2v1h-2zM18,27h7v1h-7zM4,28h7v1h-7zM16,28h1v1h-1zM18,28h1v1h-1zM20,28h1v1h-1zM22,28h1v1h-1zM25,28h1v1h-1zM28,28h1v1h-1z" fill="#000000"/>
</svg>
